<svg id="Layer_1" enable-background="new 0 0 510.625 510.625" height="512" viewBox="0 0 510.625 510.625" width="512" xmlns="http://www.w3.org/2000/svg"><path d="m173.075 221.134-20.036-96.657-29.855-6.959h-26.96c-27.446 0-49.885 22.16-50.022 49.397-.001.035-.001.07-.001.105v81.401h41.956v-81.326c.039-4.135 3.725-7.622 8.066-7.622h1.12v159.096h55.374z" fill="#414b82"/><path d="m259.611 166.914c-.136-27.238-22.576-49.397-50.022-49.397h-26.695l-29.855 6.96-.321-.075v194.167h55.751v-159.097h1.12c4.341 0 8.028 3.487 8.066 7.622v143.708c0 11.586 9.392 20.978 20.978 20.978s20.978-9.392 20.978-20.978v-143.783c0-.035 0-.07 0-.105z" fill="#2b377a"/><path d="m333.582 223.294h48.703v48.704h-48.703z" fill="#373c41"/><path id="XMLID_4439_" d="" style="fill:none;stroke:#000;stroke-width:48.108;stroke-linecap:round;stroke-linejoin:round;stroke-miterlimit:10"/><circle cx="152.097" cy="61.437" fill="#ffb69e" r="43.481"/><path d="m123.184 117.517s6.762 40.398 21.769 51.816h16.173c15.007-11.418 21.769-51.816 21.769-51.816z" fill="#fff"/><path d="m161.174 117.517h-16.27c-2.045 0-3.589 1.855-3.218 3.866l2.679 14.512c.286 1.552 1.64 2.678 3.218 2.678h10.912c1.578 0 2.932-1.126 3.218-2.678l2.679-14.512c.372-2.011-1.172-3.866-3.218-3.866z" fill="#373c41"/><path d="m160.739 144.139c-.247-1.258-1.35-2.165-2.632-2.165h-10.135c-1.282 0-2.385.907-2.632 2.165l-2.643 13.434c-.07.354-.067.718.007 1.071l2.25 10.688c2.47 1.879 5.163 2.975 8.086 2.975s5.616-1.095 8.086-2.975l2.25-10.688c.074-.352.077-.717.007-1.071z" fill="#373c41"/><path d="m32.652 276.103h445.321v216.565h-445.321z" fill="#a56941"/><path d="m501.62 299.313h-492.616c-4.973 0-9.004-4.031-9.004-9.004v-13.413c0-4.973 4.031-9.004 9.004-9.004h492.616c4.973 0 9.004 4.031 9.004 9.004v13.413c.001 4.973-4.031 9.004-9.004 9.004z" fill="#b48255"/><path d="m434.8 120.113h-153.236c-6.663 0-12.065 5.401-12.065 12.064v98.792c0 6.663 5.402 12.064 12.065 12.064h153.236c6.663 0 12.065-5.401 12.065-12.064v-98.792c-.001-6.663-5.402-12.064-12.065-12.064z" fill="#50555a"/><circle cx="358.182" cy="181.573" fill="#696e73" r="16.336"/><path d="m152.097 268.949h-84.917c-11.586 0-20.978-9.392-20.978-20.978s9.392-20.978 20.978-20.978h84.917c11.586 0 20.978 9.392 20.978 20.978s-9.392 20.978-20.978 20.978z" fill="#414b82"/><path d="m152.097 226.993h-8.821v41.956h8.821c11.586 0 20.978-9.392 20.978-20.978s-9.392-20.978-20.978-20.978z" fill="#ffb69e"/></svg>