<svg id="Capa_1" enable-background="new 0 0 511.994 511.994" height="512" viewBox="0 0 511.994 511.994" width="512" xmlns="http://www.w3.org/2000/svg"><g><g><path d="m396.954 511.99h-339.932c-12.238 0-22.159-9.921-22.159-22.159v-467.667c0-12.238 9.921-22.159 22.159-22.159h339.932c12.238 0 22.159 9.921 22.159 22.159v467.667c0 12.238-9.921 22.159-22.159 22.159z" fill="#fece85"/><path d="m419.115 22.166v467.663c0 12.236-9.919 22.166-22.155 22.166h-20.6c12.236 0 22.155-9.929 22.155-22.166v-467.663c0-12.237-9.919-22.166-22.156-22.166h20.6c12.237 0 22.156 9.929 22.156 22.166z" fill="#fcbb65"/></g><path d="m371.043 474.284h-288.109c-6.235 0-11.29-5.055-11.29-11.29v-413.994c0-6.235 5.055-11.29 11.29-11.29h288.109c6.235 0 11.29 5.055 11.29 11.29v413.994c0 6.235-5.054 11.29-11.29 11.29z" fill="#e4ebef"/><circle cx="405.944" cy="440.802" fill="#5de1c4" r="71.188"/><path d="m477.129 440.8c0 39.315-31.868 71.194-71.183 71.194-16.295 0-31.312-5.48-43.312-14.708 8.085 3.183 16.892 4.934 26.1 4.934 39.315 0 71.183-31.868 71.183-71.184 0-23.01-10.918-43.476-27.862-56.475 26.4 10.413 45.074 36.143 45.074 66.239z" fill="#0ed2b3"/><g><path d="m398.627 468.538c-.011 0-.022 0-.033 0-2.286-.01-4.443-1.063-5.858-2.858l-17.835-22.638c-2.563-3.254-2.004-7.97 1.25-10.533s7.969-2.003 10.533 1.25l11.998 15.228 26.566-33.114c2.592-3.23 7.313-3.75 10.543-1.156 3.231 2.592 3.749 7.312 1.157 10.543l-32.469 40.473c-1.426 1.773-3.578 2.805-5.852 2.805z" fill="#0ab69f"/></g><g><path d="m314.786.001v59.925c0 11.196-9.114 20.3-20.3 20.3h-134.99c-11.196 0-20.3-9.104-20.3-20.3v-59.925h15.089v59.925c0 2.877 2.334 5.211 5.211 5.211h134.99c2.867 0 5.211-2.334 5.211-5.211v-59.925z" fill="#8d9ca8"/></g><g><g><g><path d="m337.183 362.759h-220.389c-4.142 0-7.5-3.357-7.5-7.5s3.358-7.5 7.5-7.5h220.389c4.142 0 7.5 3.357 7.5 7.5s-3.358 7.5-7.5 7.5z" fill="#8d9ca8"/></g><g><path d="m292.909 395.307h-176.115c-4.142 0-7.5-3.357-7.5-7.5s3.358-7.5 7.5-7.5h176.115c4.142 0 7.5 3.357 7.5 7.5s-3.358 7.5-7.5 7.5z" fill="#8d9ca8"/></g><g><path d="m277.474 428.332h-160.68c-4.142 0-7.5-3.357-7.5-7.5s3.358-7.5 7.5-7.5h160.68c4.142 0 7.5 3.357 7.5 7.5s-3.358 7.5-7.5 7.5z" fill="#8d9ca8"/></g></g><g><path d="m319.995 223.65h-186.013v79.248c0 7.097 5.754 12.851 12.851 12.851h160.311c7.097 0 12.851-5.754 12.851-12.851z" fill="#ac5e2e"/><path d="m319.995 233.693v69.201c0 7.098-5.754 12.853-12.853 12.853h-18.804c7.099 0 12.853-5.754 12.853-12.853v-69.201z" fill="#9e5528"/><g><path d="m262.14 166.689c-4.142 0-7.5-3.357-7.5-7.5v-18.282c0-4.011-3.263-7.273-7.274-7.273h-40.756c-4.011 0-7.274 3.263-7.274 7.273v18.282c0 4.143-3.358 7.5-7.5 7.5s-7.5-3.357-7.5-7.5v-18.282c0-12.281 9.992-22.273 22.274-22.273h40.755c12.282 0 22.274 9.992 22.274 22.273v18.282c.001 4.142-3.357 7.5-7.499 7.5z" fill="#ac5e2e"/></g><path d="m320.619 233.692h-187.261c-4.552 0-8.242-3.69-8.242-8.242v-58.02c0-4.552 3.69-8.242 8.242-8.242h187.261c4.552 0 8.242 3.69 8.242 8.242v58.02c-.001 4.552-3.691 8.242-8.242 8.242z" fill="#d77f4a"/><path d="m328.861 167.426v58.021c0 4.551-3.695 8.246-8.246 8.246h-18.804c4.551 0 8.246-3.695 8.246-8.246v-58.021c0-4.551-3.695-8.236-8.246-8.236h18.804c4.551 0 8.246 3.686 8.246 8.236z" fill="#c86d36"/><path d="m254.448 252.046h-48.143c-3.341 0-6.049-2.708-6.049-6.049v-25.923c0-3.341 2.708-6.049 6.049-6.049h48.143c3.341 0 6.049 2.708 6.049 6.049v25.923c0 3.341-2.708 6.049-6.049 6.049z" fill="#ecbba3"/><path d="m260.498 220.069v25.931c0 3.338-2.708 6.046-6.046 6.046h-18.56c3.347 0 6.055-2.708 6.055-6.046v-25.931c0-3.338-2.708-6.046-6.055-6.046h18.56c3.338.001 6.046 2.709 6.046 6.046z" fill="#e19974"/></g></g></g></svg>