<svg id="Capa_1" enable-background="new 0 0 512 512" height="512" viewBox="0 0 512 512" width="512" xmlns="http://www.w3.org/2000/svg"><g><g><g><g><g><path d="m376 512h-240c-24.814 0-45-20.186-45-45v-422c0-24.814 20.186-45 45-45h240c24.814 0 45 20.186 45 45v422c0 24.814-20.186 45-45 45z" fill="#5c6699"/></g></g></g></g><path d="m376 0h-120v512h120c24.814 0 45-20.186 45-45v-422c0-24.814-20.186-45-45-45z" fill="#404a80"/><g><path d="m361 241v30c0 27.9-10.8 53.399-29.099 71.999-15.901-25.199-44.101 18.001-75.901 18.001s-60-43.2-75.901-18.001c-18.299-18.6-29.099-44.099-29.099-71.999v-30c0-57.9 47.1-105 105-105s105 47.1 105 105z" fill="#edf5ff"/></g><path d="m331.901 342.999c18.299-18.6 29.099-44.099 29.099-71.999v-30c0-57.9-47.1-105-105-105v225c31.8 0 60-43.2 75.901-18.001z" fill="#d5e8fe"/><g id="Smart_phone_2_"><g><g><path d="m256 286c-24.814 0-45-20.186-45-45s20.186-45 45-45 45 20.186 45 45-20.186 45-45 45z" fill="#80bfff"/></g></g><g><path d="m286 90h-60c-8.291 0-15-6.709-15-15s6.709-15 15-15h60c8.291 0 15 6.709 15 15s-6.709 15-15 15z" fill="#d5e8fe"/></g><g><circle cx="256" cy="437" fill="#edf5ff" r="15"/></g></g><path d="m256 301c-31.8 0-60 16.8-75.901 41.999 18.9 20.4 45.901 33.001 75.901 33.001s57.001-12.601 75.901-33.001c-15.901-25.199-44.101-41.999-75.901-41.999z" fill="#80bfff"/><g><path d="m271 437c0-8.286-6.716-15-15-15v30c8.284 0 15-6.716 15-15z" fill="#d5e8fe"/><path d="m286 60h-30v30h30c8.291 0 15-6.709 15-15s-6.709-15-15-15z" fill="#b5dbff"/><g fill="#69f"><path d="m331.901 342.999c-15.901-25.199-44.101-41.999-75.901-41.999v75c30 0 57.001-12.601 75.901-33.001z"/><path d="m301 241c0-24.814-20.186-45-45-45v90c24.814 0 45-20.186 45-45z"/></g></g></g></svg>