<svg id="Layer_1" enable-background="new 0 0 64 64" height="512" viewBox="0 0 64 64" width="512" xmlns="http://www.w3.org/2000/svg"><path d="m47.4 47.5-1.3 1.9 1.7 1.1 1.2-1.8 1.2 1.8 1.7-1.1-1.3-1.9c1.4-.9 1.9-2.7 1-4.1s-2.7-1.9-4.1-1-1.9 2.7-1 4.1c.2.5.5.8.9 1zm1.6-3.5c.6 0 1 .4 1 1s-.4 1-1 1-1-.4-1-1 .4-1 1-1z"/><path d="m44 52h10v2h-10z"/><path d="m41 62h13c2.2 0 4-1.8 4-4v-17c0-1.7-1.3-3-3-3h-1.9c-1.3-1.5-3-2.6-4.9-3.1l-6.8-2.1c1-1.1 1.7-2.5 2.2-3.9l2.7-1.4c1-.5 1.7-1.5 1.7-2.7v-1.2c0-1.4-.9-2.6-2.2-2.9l-1.8-.5v-8.6l2-.4v4.8h2v-8.4c0-1.4-1-2.7-2.4-2.9l-13.6-2.7-13.6 2.7c-1.4.3-2.4 1.5-2.4 2.9v.7c0 1.4 1 2.7 2.4 2.9l1.6.3v8.6l-1.8.5c-1.3.4-2.2 1.6-2.2 3v1.2c0 1.1.6 2.2 1.7 2.7l2.7 1.4c.4 1.4 1.1 2.8 2.2 3.9l-6.8 2.1c-4.7 1.4-7.8 5.6-7.8 10.5v16.6zm14-22c.6 0 1 .4 1 1v17c0 1.1-.9 2-2 2s-2-.9-2-2v-2h-10v-15c0-.6.4-1 1-1zm-7.3-3.2c.9.3 1.7.7 2.5 1.2h-7.2c-1.7 0-3 1.3-3 3v2.5l-5.9 5.3 4.6-13.8.6-.4c.1-.1.2-.2.3-.2zm-15.7 12-4.1-12.3c2.6 1.4 5.7 1.4 8.2 0zm10-26.8h-2.6c-.7-1.2-2-2-3.4-2h-.4c-1.3 0-2.6.7-3.3 1.8l-.3.4-.3-.4c-.7-1.1-2-1.8-3.3-1.8h-.4c-1.4 0-2.7.8-3.4 2h-2.6v-4h20zm-4 2c0 1.1-.9 2-2 2h-.4c-.7 0-1.3-.3-1.7-.9l-.7-1.1.7-1.1c.4-.6 1-.9 1.7-.9h.4c1.1 0 2 .9 2 2zm-7.2 0-.7 1.1c-.4.6-1 .9-1.7.9h-.4c-1.1 0-2-.9-2-2s.9-2 2-2h.4c.7 0 1.3.3 1.7.9zm11.2-8h-20v-4l9.4 1.9c.4.1.8.1 1.2 0l9.4-1.9zm3.3 6.6c.4.1.7.5.7 1v1.2c0 .4-.2.7-.6.9l-1.4.7c0-.1 0-.2 0-.3v-3.8zm-26.7 3.1c-.3-.2-.6-.5-.6-.9v-1.2c0-.5.3-.9.7-1l1.3-.3v3.8.3zm.2-16.4c-.5-.1-.8-.5-.8-1v-.7c0-.5.3-.9.8-1l13.2-2.6 13.2 2.6c.5.1.8.5.8 1v1.5l-13.8 2.8c-.1 0-.3 0-.4 0zm3.2 16.8v-2.1h2c0 2.2 1.8 4 4 4h.4c1.3 0 2.6-.7 3.3-1.8l.3-.4.3.4c.7 1.1 2 1.8 3.3 1.8h.4c2.2 0 4-1.8 4-4h2v2.1c0 2.7-1.4 5.3-3.7 6.7l-2.5 1.6c-2.3 1.5-5.2 1.5-7.5 0l-2.5-1.6c-2.4-1.5-3.8-4-3.8-6.7zm-5.7 10.7 8-2.5c.1.1.2.2.3.2l.6.4 4.6 13.8-7.8-7-2.7 1.8-3.6-6.5c.2-.1.4-.2.6-.2zm4.7 23.2v-9h-2v9h-9v-14.6c0-3 1.5-5.8 3.9-7.4l4.7 8.5 3.3-2.2 10.1 9 8-7.2v9.9h-4v2c0 .7.2 1.4.6 2zm17-2h12c0 .7.2 1.4.5 2h-10.5c-1.1 0-2-.9-2-2z"/><path d="m31 55h2v3h-2z"/></svg>