<svg id="Layer_1" enable-background="new 0 0 64 64" height="512" viewBox="0 0 64 64" width="512" xmlns="http://www.w3.org/2000/svg"><g><g><g><path d="m30.638 37h3v2h-3z" fill="#db9e68"/></g><g><path d="m38.138 50h-10.5v-11h12v9.5c0 .828-.672 1.5-1.5 1.5z" fill="#db9e68"/></g><g><path d="m27.638 50c-1.657 0-3-1.343-3-3v-9c0-.552.448-1 1-1 1.105 0 2 .895 2 2z" fill="#eec78e"/></g><g><path d="m30.638 39h-3v-11.5c0-.828.672-1.5 1.5-1.5.828 0 1.5.672 1.5 1.5z" fill="#eec78e"/></g><g><path d="m32.138 39.5c-.828 0-1.5-.672-1.5-1.5v-5c0-.828.672-1.5 1.5-1.5.828 0 1.5.672 1.5 1.5v5c0 .828-.672 1.5-1.5 1.5z" fill="#eec78e"/></g><g><path d="m35.138 43c-.828 0-1.5-.672-1.5-1.5v-4.5c0-.828.672-1.5 1.5-1.5.828 0 1.5.672 1.5 1.5v4.5c0 .828-.672 1.5-1.5 1.5z" fill="#eec78e"/></g><g><path d="m38.138 44c-.828 0-1.5-.672-1.5-1.5v-4c0-.828.672-1.5 1.5-1.5.828 0 1.5.672 1.5 1.5v4c0 .828-.672 1.5-1.5 1.5z" fill="#eec78e"/></g><g><path d="m27.638 44v6h6c0-3.314-2.686-6-6-6z" fill="#eec78e"/></g><g><path d="m27.638 50h6v3h-6z" fill="#eec78e"/></g><g><path d="m33.638 50h4.5v3h-4.5z" fill="#db9e68"/></g><g><circle cx="32.138" cy="38" fill="#db9e68" r="1"/></g><g><circle cx="35.138" cy="41.5" fill="#db9e68" r="1"/></g><g><circle cx="38.138" cy="42.5" fill="#db9e68" r="1"/></g><g><path d="m24.638 38v2h2c0-1.105-.896-2-2-2z" fill="#db9e68"/></g><g><path d="m27.638 53h6v4h-6z" fill="#dbdee3"/></g><g><path d="m33.638 61h-7.5v-3c0-.552.448-1 1-1h6.5z" fill="#55525b"/></g><g><path d="m39.638 61h-6v-4h5c.552 0 1 .448 1 1z" fill="#353744"/></g><g><path d="m33.638 53h4.5v4h-4.5z" fill="#b3b4b6"/></g></g><g><path d="m48.5 21h-33c-.828 0-1.5-.672-1.5-1.5v-10.5h36v10.5c0 .828-.672 1.5-1.5 1.5z" fill="#55525b"/></g><g><path d="m14 9v4h16.6c.773 0 1.4.627 1.4 1.4v6.6h16.5c.828 0 1.5-.672 1.5-1.5v-10.5z" fill="#353744"/></g><g><path d="m60.5 9h-57c-.828 0-1.5-.672-1.5-1.5v-1c0-.828.672-1.5 1.5-1.5h57c.828 0 1.5.672 1.5 1.5v1c0 .828-.672 1.5-1.5 1.5z" fill="#353744"/></g><g><path d="m30.5 9h-27c-.828 0-1.5-.672-1.5-1.5v-1c0-.828.672-1.5 1.5-1.5h27c.828 0 1.5.672 1.5 1.5v1c0 .828-.672 1.5-1.5 1.5z" fill="#55525b"/></g><g><path d="m57 13c.365 0 .706.099 1 .27v-8.27h-2v8.27c.294-.171.635-.27 1-.27z" fill="#f68820"/></g><g><path d="m54.5 27h5c.276 0 .5-.224.5-.5v-8.5c0-.552-.448-1-1-1h-4c-.552 0-1 .448-1 1v8.5c0 .276.224.5.5.5z" fill="#f68820"/></g><g><path d="m55 15h4v2h-4z" fill="#b3b4b6"/></g><g><path d="m55 15h2v2h-2z" fill="#dbdee3"/></g><g><path d="m59 15h-4c0-1.105.895-2 2-2 1.105 0 2 .895 2 2z" fill="#fbbe18"/></g><g><path d="m58 5h-27c0-1.105.895-2 2-2h23c1.105 0 2 .895 2 2z" fill="#fbbe18"/></g><g><path d="m57 17h-2c-.552 0-1 .448-1 1v8.5c0 .276.224.5.5.5h2.5z" fill="#fbbe18"/></g><g><path d="m55.5 20c-.276 0-.5.224-.5.5v6.5h1v-6.5c0-.276-.224-.5-.5-.5z" fill="#f68820"/></g><g><path d="m58.5 23.5c-.276 0-.5.224-.5.5v3h1v-3c0-.276-.224-.5-.5-.5z" fill="#fbbe18"/></g><g><path d="m6.284 54.354-1.293 1.293c-.195.195-.195.512 0 .707l3.293 3.293c.195.195.512.195.707 0l1.293-1.293c.195-.195.195-.512 0-.707l-3.293-3.293c-.195-.196-.511-.196-.707 0z" fill="#fbbe18"/></g><g><path d="m8.991 30.354 1.293 1.293c.195.195.195.512 0 .707l-3.293 3.293c-.195.195-.512.195-.707 0l-1.293-1.293c-.195-.195-.195-.512 0-.707l3.293-3.293c.196-.196.512-.196.707 0z" fill="#f68820"/></g><g><path d="m19.138 46h-2c-.276 0-.5-.224-.5-.5v-5c0-.276.224-.5.5-.5h2c.276 0 .5.224.5.5v5c0 .276-.224.5-.5.5z" fill="#6fa4d8"/></g><g><path d="m58.991 54.354 1.293 1.293c.195.195.195.512 0 .707l-3.293 3.293c-.195.195-.512.195-.707 0l-1.293-1.293c-.195-.195-.195-.512 0-.707l3.293-3.293c.196-.196.512-.196.707 0z" fill="#f68820"/></g><g><path d="m56.284 30.354-1.293 1.293c-.195.195-.195.512 0 .707l3.293 3.293c.195.195.512.195.707 0l1.293-1.293c.195-.195.195-.512 0-.707l-3.293-3.293c-.195-.196-.511-.196-.707 0z" fill="#6fa4d8"/></g><g><path d="m46.138 46h2c.276 0 .5-.224.5-.5v-5c0-.276-.224-.5-.5-.5h-2c-.276 0-.5.224-.5.5v5c0 .276.224.5.5.5z" fill="#fbbe18"/></g></g></svg>